<svg xmlns="http://www.w3.org/2000/svg" width="28" height="28" id="train"><path fill-rule="evenodd" d="M14 0A14 14 0 0 0 0 14a14 14 0 0 0 14 14 14 14 0 0 0 14-14A14 14 0 0 0 14 0zM8.6 6h10.677c.641 0 1.16.52 1.16 1.16v10.68c0 .633-.508 1.144-1.138 1.156l1.205 2.27a.504.504 0 0 1-.012.492.503.503 0 0 1-.43.242H7.938a.5.5 0 0 1-.43-.754L8.833 19H8.6c-.641 0-1.162-.52-1.162-1.16V7.16c0-.64.52-1.16 1.162-1.16zm.414 3a.576.576 0 0 0-.576.576v2.83c0 .328.265.594.593.594h3.615a.79.79 0 0 0 .791-.791V9.791a.79.79 0 0 0-.79-.791H9.013zm6.215 0a.79.79 0 0 0-.791.791v2.418a.79.79 0 0 0 .79.791h3.633a.576.576 0 0 0 .576-.576V9.79a.79.79 0 0 0-.79-.791h-3.418zm2.209 5.994a1 1 0 1 0 0 2 1 1 0 0 0 0-2zm-7 .006a1 1 0 1 0 0 2 1 1 0 0 0 0-2zm-.444 4-1.18 2h1.077l.67-2h-.567zm1.62 0-.669 2h1.492v-2h-.824zm1.823 0v2h1v-2h-1zm2 0v2H17.1l-.864-2h-.799zm1.887 0 .863 2h1.043l-1.062-2h-.844z"></path></svg>