<?xml version="1.0" encoding="UTF-8"?>
<!DOCTYPE svg PUBLIC "-//W3C//DTD SVG 1.1//EN" "http://www.w3.org/Graphics/SVG/1.1/DTD/svg11.dtd">
<!-- Creator: CorelDRAW -->
<svg xmlns="http://www.w3.org/2000/svg" xml:space="preserve" width="102.53mm" height="23.8017mm" style="shape-rendering:geometricPrecision; text-rendering:geometricPrecision; image-rendering:optimizeQuality; fill-rule:evenodd; clip-rule:evenodd"
viewBox="0 0 77.6337 18.0222"
 xmlns:xlink="http://www.w3.org/1999/xlink">
 <defs>
  <style type="text/css">
   <![CDATA[
    .fil0 {fill:none}
    .fil1 {fill:black}
    .fil2 {fill:#004E90}
    .fil5 {fill:#DA251D}
    .fil4 {fill:#FFF500}
    .fil3 {fill:white}
    .fil6 {fill:#1F1A17;fill-rule:nonzero}
   ]]>
  </style>
 </defs>
 <g id="Vrstva_x0020_1">
  <metadata id="CorelCorpID_0Corel-Layer"/>
  <g id="_127697320">
   <g>
    <path id="_182920440" class="fil0" d="M0 0l16.2142 0 0 9.44162c-0.0293787,11.6004 -16.2548,11.0069 -16.2142,0l0 -9.44162z"/>
    <path id="_182919624" class="fil0" d="M0 0l16.2142 0 0 9.44162c-0.0293787,11.6004 -16.2548,11.0069 -16.2142,0l0 -9.44162z"/>
    <path id="_182919768" class="fil1" d="M0 0l16.2142 0 0 9.44162c-0.0293787,11.6004 -16.2548,11.0069 -16.2142,0l0 -9.44162z"/>
    <path id="_182919984" class="fil2" d="M7.96451 17.7342c-4.23939,-0.222763 -7.64316,-2.97467 -7.77317,-8.12374l7.97162 0 -0.217236 1.93316c-0.912027,-0.191113 -1.44054,-0.813896 -1.58562,-1.86805 -1.60008,0.899458 -1.79778,3.79462 0,5.0177 0.163324,-1.11798 0.838202,-1.77264 1.49884,-1.88985l0 1.0861 0.10858 0.130311 0 1.41192 -0.260698 0c-1.12245,-1.11071 -2.224,-0.769677 -3.2147,0.564783l-0.0651935 0c0.171351,-0.759379 -0.858873,-0.766572 -0.825405,-0.0217312 0.0720838,0.595827 0.639517,0.683131 1.10776,0.347547l3.25823 0 -0.00302873 1.41184zm-2.75668 -1.72486l2.20484 0c-0.56925,-0.535556 -1.36959,-0.754306 -2.13722,-0.0947236l-0.0676164 0.0947236z"/>
    <path id="_182920200" class="fil2" d="M8.29002 9.6219l0.302722 1.85661c0.0608018,0.252521 0.196489,0.365719 0.383437,0.383362l2.68391 0.34308 -2.60327 0.423795c-0.247069,0.0558044 -0.377153,0.207014 -0.336189,0.497772l-7.57183e-005 0.76006 -0.0604989 0.134476 0 1.40616 0.356482 -0.0134021c1.01546,-0.93338 2.0662,-0.917933 3.16828,0.484143l0.08064 0c-0.0828358,-0.699789 0.791635,-0.637624 0.811549,0.0202168 -0.310596,0.45855 -0.653903,0.561375 -1.09148,0.384725l-3.31215 0.0118121 -7.57183e-005 1.41964c4.91571,-0.455597 7.51095,-4.41582 7.32552,-8.11238l-7.7088 0 0 -7.57183e-005zm1.04241 6.36617l2.25603 0 -0.106687 -0.0877575c-0.891432,-0.64936 -1.54465,-0.41009 -2.14934,0.0877575z"/>
    <path id="_182920416" class="fil3" d="M8.25269 10.0593l-0.203228 1.65687c-0.984717,-0.229199 -1.63075,-0.797238 -1.7818,-1.86002 -1.37815,1.26669 -1.44062,3.21401 0.0155223,4.62662 0.133567,-0.860311 0.705392,-1.61984 1.70374,-1.84442l0 1.23481 0.0625433 0.0468696 0.500195 0 0.0758697 -0.0781413 0.00227155 -0.922173c-0.00583031,-0.211103 0.143562,-0.336114 0.453325,-0.422054l1.89129 -0.265696 -2.25088 -0.312641c-0.14076,-0.0988124 -0.244267,-0.24987 -0.265696,-0.515793l-0.203152 -1.34423zm-4.15512 5.6769c-0.217084,0.0495198 -0.200729,0.372685 0.0489897,0.543052l0.291743 0.0240784c-0.498605,0.368142 -0.99774,-0.242677 -0.589997,-0.741812 0.30151,-0.10116 0.5033,-0.0530028 0.504208,0.361101 -0.0915434,0.224126 -0.374427,0.0339218 -0.254944,-0.186418zm7.99146 0.513446l0.495955 0c0.268119,-0.0402064 0.294923,-0.386921 0.100554,-0.563496l-0.0670107 0.0335432c0.0915434,0.218902 -0.118423,0.285912 -0.281521,0.167565 -0.0425537,-0.391009 0.243434,-0.56978 0.583107,-0.268119 0.285155,0.524198 -0.452795,0.908695 -0.831084,0.630506zm-4.4455 -0.727123l1.38996 0c1.05521,-0.991531 2.08967,-0.839035 3.10362,0.457414l-0.441589 0.00136293c-0.853194,-0.745598 -1.62779,-0.806854 -2.49378,0.0115092l-1.66323 -0.000605746c-0.833356,-0.736739 -1.65778,-0.809202 -2.47061,0l-0.464759 0c1.04491,-1.34983 2.05742,-1.46969 3.04039,-0.469681z"/>
    <path id="_182920776" class="fil4" d="M4.2138 16.2258l8.38308 -0.019081c0.10964,-0.0604989 0.149695,-0.205499 0.120089,-0.353226 -0.048384,0.0608018 -0.0706452,0.177484 -0.145152,0.205575l-8.37005 0.0226398c-0.103583,-0.0165066 -0.163627,-0.0765512 -0.180134,-0.180134 -0.0230184,0.14288 0.0410393,0.251006 0.192173,0.324226zm3.87292 -2.13821l0.494289 0 0 1.3387 -0.494289 0 0 -1.3387zm-0.00242299 2.23475l0.496712 0 0 1.42108 -0.495198 0 -0.00151437 -1.42108z"/>
    <path id="_182920920" class="fil3" d="M1.49968 0.432352c0.276902,0.293787 0.603172,0.516323 1.03802,0.581971 0.4375,0.0788228 0.708269,0.268649 0.865082,0.534723l0.173016 0.204515c0.208074,0.0162794 0.347547,0.0914677 0.424628,0.220189 0.246539,0.0348304 0.470211,0.0848802 0.660566,0.157267 0.183995,-0.0108277 0.226398,0.055653 0.204515,0.157267l-0.0157494 0.5033 -0.0471725 -0.0157494c0.0470968,0.140836 -0.0367991,0.188009 -0.251612,0.141593l-0.361782 -0.110094 -0.125844 0.0157494 -0.0629219 0.0471725c0.293181,0.16393 0.580154,0.345881 0.912254,0.393205l0.220189 0.141593c0.1634,-0.196262 0.317563,-0.405093 0.424704,-0.676392 0.0759455,-0.167035 0.217539,-0.240406 0.424628,-0.220189 0.612031,0.0592117 1.09625,0.158781 1.35263,0.330359 0.350879,0.259865 0.523895,0.500952 0.518973,0.723488l-0.18869 -0.0157494 0.125844 0.173016c-0.282808,0.0704937 -0.524652,0.0530785 -0.676316,-0.157267l-0.157267 -0.235938 -0.251688 0.0314988c-0.174076,-0.0949508 -0.380257,-0.165747 -0.629143,-0.204515 -0.0845773,0.188766 -0.131826,0.377456 -0.141593,0.566221 0.260698,-0.116455 0.465138,-0.11123 0.61347,0.0157494 0.301737,0.261152 0.607412,0.505798 0.928004,0.692065 0.230411,0.228064 0.349819,0.51178 0.393129,0.833583l-0.235938 -0.0157494c-0.0159008,0.0995696 0.00689037,0.199215 0.0472482,0.29886 -0.389116,-0.0685251 -0.659506,-0.264181 -0.786486,-0.613394 -0.0659506,-0.178317 -0.234348,-0.356557 -0.48755,-0.534798 -0.0808671,-0.0227912 -0.180512,-0.0176424 -0.298784,0.0157494 -0.211406,0.18074 -0.456051,0.305902 -0.723488,0.393205 -0.0178695,0.533284 -0.282354,1.01728 -0.581971,1.49422l-0.0314231 0.172941 0.125768 0c0.0546686,0.304463 -0.00302873,0.524652 -0.173016,0.660642 0.139625,0.0487626 0.262591,0.124935 0.346033,0.267361 -0.0243813,0.0817 -0.0767784,0.144546 -0.157267,0.188766l0.0910134 0.075264c0.0633005,-0.207771 0.29038,-0.169912 0.302192,0.0505798 0.113502,0.327557 0.549866,0.2925 0.424704,0l-0.456127 -0.220189c-0.00424022,-0.225943 0.13599,-0.360646 0.48755,-0.361782 -0.101463,-0.231471 -0.0438409,-0.425385 0.172941,-0.581895 0.23291,0.11229 0.353529,0.243359 0.361858,0.393129 0.144849,-0.173925 0.353074,-0.239421 0.629068,-0.18869 -0.208377,0.191113 -0.378894,0.387678 -0.456051,0.597645 0.109489,0.296589 0.00340732,0.465743 -0.298936,0.519049 -0.0870003,0.102523 -0.172941,0.2108 -0.166429,0.3321 0.111306,0.168019 0.0916949,0.298633 -0.0589846,0.391767 -1.2464,-0.166656 -2.54913,-0.173395 -3.90775,-0.0217312 -0.178544,-0.0641334 -0.188614,-0.175061 -0.0302116,-0.332858l-0.255246 -0.45961c-0.289925,-0.0598175 -0.399641,-0.217917 -0.350273,-0.537449 0.108277,0.107747 -0.387905,-0.344291 -0.30257,-0.51867l0.590754 0.158478 0.34573 -0.374578c0.180134,0.154617 0.266528,0.346714 0.259335,0.576292 0.158024,0.0108277 0.29727,0.0684493 0.417889,0.172865 -0.078217,0.288108 -0.267664,0.420615 -0.533133,0.446662 0.0912406,0.348834 0.428187,0.379576 0.547519,0.0288487 -0.169003,-0.166429 -0.047854,-0.33051 0.2161,-0.288562l0 -0.388586c-0.375411,-0.181951 -0.586968,-0.486793 -0.662762,-0.893325 -0.0479297,-0.293408 0.0913163,-0.418268 0.417889,-0.374578 0.147348,0.0963137 0.238588,0.201941 0.273722,0.316957l0.0863946 0c0.0342247,-0.24775 0.118575,-0.533208 0.30257,-0.893249 0.0585302,-0.436819 -0.0327103,-0.864249 -0.273722,-1.28229 -0.355876,-0.457869 -0.570462,-0.982975 -0.533057,-1.62802l-0.389041 -0.244949c-0.387981,0.345275 -0.74522,0.394038 -1.0805,0.230562 -0.0470211,-0.0353604 -0.111609,-0.107899 0.0431594,-0.158554 0.393129,-0.0793528 0.575611,-0.18498 0.547519,-0.316957 -0.158478,-0.0581517 -0.316957,-0.0196868 -0.475435,0.115319 -0.437349,0.047854 -0.725457,-0.15863 -0.864476,-0.619603 -0.023927,-0.124784 0.00696608,-0.194747 0.158478,-0.144016 0.11176,0.183693 0.249795,0.279703 0.414103,0.288032 -0.379424,-0.405244 -0.53071,-0.746355 -0.348683,-0.993576l0.671091 0.736966c0.0449767,-0.066935 0.0625433,-0.150301 0.0197625,-0.269784l0.322409 0.210573 0.131598 -0.02635c-0.27569,-0.264333 -0.403276,-0.501255 -0.204969,-0.677679zm-1.30152 -0.23291l7.8058 0 0 9.30578 -7.79982 0.00749611 -0.00598175 -9.31335 0 7.57183e-005zm2.42662 1.34854l0.187479 0.16075 0.116076 -0.0536086c-0.101235,-0.0952536 -0.202395,-0.130917 -0.303555,-0.107141zm0.831614 0.639593c0.0179452,-0.0279401 0.0706452,-0.0405093 0.119559,-0.0375563 0.0204439,0.0417208 0.0138564,0.0757183 -0.0274857,0.117515l-0.0920735 -0.0799585zm0.172789 0.103431c0.0510341,0.00757183 0.102068,-0.0127964 0.153178,-0.0701151 0.000151437,-0.0356633 -0.0384649,-0.0583788 -0.115925,-0.0681465 0.00696608,0.0396007 -0.00545172,0.0857131 -0.0372534,0.138262zm-0.825708 5.25848c0.0353604,0 0.0642091,0.0288487 0.0642091,0.0642091 0,0.0353604 -0.0288487,0.0642091 -0.0642091,0.0642091 -0.0353604,0 -0.0642091,-0.0288487 -0.0642091,-0.0642091 0,-0.0353604 0.0288487,-0.0642091 0.0642091,-0.0642091zm2.3397 0.0514127c0.0353604,0 0.0641334,0.0288487 0.0641334,0.0642091 0,0.0353604 -0.028773,0.0641334 -0.0641334,0.0641334 -0.0354362,0 -0.0642091,-0.028773 -0.0642091,-0.0641334 0,-0.0353604 0.028773,-0.0642091 0.0642091,-0.0642091z"/>
    <path id="_182922120" class="fil5" d="M2.22854 1.98617c0.155374,0.0681465 0.269784,0.143108 0.323923,0.228215 0.173395,0.0152951 0.296059,-0.0118121 0.368142,-0.0810186 -0.0878332,-0.014235 -0.16923,-0.032786 -0.206181,-0.0809429 -0.0497469,-0.0414936 -0.122664,-0.0711752 -0.206181,-0.0957079l0.206181 0.0221097c0.201486,0.10593 0.360646,0.137959 0.427051,0.00734468 -0.112972,-0.0199139 -0.225792,-0.056713 -0.338688,-0.110473 -0.0685251,-0.0566373 -0.218296,-0.0320288 -0.404941,0.0294544 -0.0396007,0.0439166 -0.0960865,0.0709481 -0.169306,0.0810186zm0.859554 5.27355c0.0392221,-0.0664807 0.0982824,-0.123042 0.201032,-0.157948 -0.160674,-0.173395 -0.223142,-0.356255 -0.288638,-0.545626 -0.0133264,-0.157948 -0.0940421,-0.315821 -0.170896,-0.473769 -0.162491,-0.288638 -0.497469,-0.226625 -0.416299,0.114865 0.0363448,0.305523 0.21398,0.526318 0.488156,0.689188l0.0573945 -0.186646 0.028773 0.258427 0.100478 0.30151zm-0.0430837 0.272813c0.11547,0.122134 0.276069,0.179982 0.502542,0.143638 -0.119938,0.214207 -0.287502,0.262137 -0.502542,0.143562l-0.186646 -0.071781c0.133567,-0.00045431 0.195808,-0.072311 0.186646,-0.215419zm1.34968 0.11494c0.118272,0.0782927 0.281293,0.0785199 0.383816,0.0143108l0.214359 0.172335c-0.278719,0.246842 -0.49391,0.184526 -0.598175,-0.186646zm-1.73652 -5.28438l0.229502 -0.0898019 0.169685 -0.0399035 0 -0.109792 0.189674 -0.169685c0.132431,-0.0280915 0.232228,-0.0779899 0.29939,-0.149695 0.18657,0.024457 0.329602,0.114259 0.429096,0.269481l0.608775 0.129781c0.18498,0.00779899 0.189826,0.0512613 0.15969,0.0997967l0.00999482 0.339294 -0.568872 -0.109792 0.0299087 0.0598932 0.488989 0.129705c0.0314231,0.145833 -0.0218069,0.182405 -0.159614,0.109792 -0.334523,-0.120771 -0.54555,-0.123724 -0.698653,0.0345275 -0.486793,0.2161 -0.813669,0.0399035 -0.91816,-0.383816l-0.0399035 0c0.0682979,0.467561 0.303176,0.67465 0.888251,0.518973l0.189599 -0.00999482 0.568872 0.249568c0.450448,0.163476 0.738178,0.358223 0.788455,0.598705 -0.0904834,0.043538 -0.250098,-0.0129478 -0.47907,-0.169609l0 0.0399793c0.135233,0.316503 0.734165,0.349289 1.16765,0.109716 0.175818,-0.0682979 0.320288,-0.0802614 0.419177,-0.00999482 0.27834,0.238513 0.569174,0.451887 0.878257,0.628765 -0.131826,0.153708 -0.24828,0.253429 -0.349364,0.299466 -0.130235,-0.143638 -0.291743,-0.281066 -0.498984,-0.409257 -0.130993,-0.0736739 -0.277356,-0.0702666 -0.43909,0.00999482 -0.170139,0.179377 -0.424477,0.31673 -0.748551,0.419177 -0.158554,0.0164309 -0.323469,0.0078747 -0.497394,-0.0373291 -0.183995,-0.119938 -0.371853,-0.24563 -0.540477,-0.411832l0.0635277 0.136066c0.269179,0.372307 0.506858,0.474678 0.974343,0.442801 -0.0608018,0.428111 -0.23715,0.863946 -0.528892,1.30743 -0.0751126,0.0898019 -0.111684,0.179604 -0.109792,0.269406l-0.0225641 0.0525485c-0.105627,-0.0240784 -0.22087,0.0152194 -0.310975,0.0835173 -0.042478,-0.123194 -0.138716,-0.28773 -0.335129,-0.395477 -0.171123,0.104718 -0.246917,0.251763 -0.279401,0.418041 -0.139397,-0.0901805 -0.298103,-0.185283 -0.499059,-0.198458l-0.0698123 0.1397c-0.0121149,-0.397218 0.104567,-0.831311 0.369202,-1.36725l0 -0.0798828c0.029833,-0.528665 -0.0882875,-0.929064 -0.289395,-1.25753 -0.378213,-0.471952 -0.499665,-0.978886 -0.538887,-1.49703zm2.57715 1.10624l0.215646 0.386693c0.178468,0.00492169 0.287502,-0.0396764 0.327255,-0.13387 0.0396007,-0.205727 0.108959,-0.411453 0.20815,-0.61718l0.104113 -0.066935c0.225565,0.0545172 0.431216,0.128948 0.61718,0.223066l0.185888 -0.0148408c0.0601203,-0.171653 0.155525,-0.284474 0.27516,-0.356936 -0.2925,-0.138792 -0.713948,-0.228064 -1.26412,-0.26774 -0.0966923,-0.034679 -0.173546,7.57183e-005 -0.230562,0.104188 -0.112745,0.281293 -0.266453,0.521775 -0.438712,0.743554zm-1.90909 -1.25374c0.215267,-0.174304 0.399868,-0.185283 0.553955,-0.0330132l-0.0082533 0.0661021c-0.0227155,0.0141593 -0.048914,-0.00598175 -0.066935,0.0106763 -0.105551,0.0975252 -0.246766,0.127964 -0.371323,-0.0189296l-0.107444 -0.0248356z"/>
    <path id="_182921208" class="fil2" d="M1.50922 7.28925c-0.08064,0.19399 -0.00757183,0.330056 0.234348,0.423265l0.0604232 0.00757183c0.168398,-0.36837 -0.0419479,-0.478615 -0.294771,-0.430837zm2.48704 -0.441059c0.142502,0 0.258654,0.114107 0.258654,0.254035 0,0.140003 -0.116152,0.254111 -0.258654,0.254111 -0.142426,0 -0.258578,-0.114107 -0.258578,-0.254111 0,-0.139927 0.116152,-0.254035 0.258578,-0.254035zm2.41269 0.524274c0.08064,0.193915 0.0302873,0.32998 -0.211633,0.42319l-0.0754911 0c-0.128797,-0.33157 0.0560315,-0.446965 0.287124,-0.42319z"/>
    <path id="_182921424" class="fil4" d="M0.621117 0.759c0.26562,0.388132 0.578866,0.646937 0.96185,0.716598 0.415921,0.00575459 0.80004,0.0800342 0.930351,0.220037 -0.186494,0.020974 -0.364584,0.0838202 -0.534344,0.188614l0.0629219 0.106914c-0.254641,0.259789 -0.529195,0.320516 -0.817228,0.245176 0.370944,-0.0859403 0.634898,-0.232607 0.704105,-0.553274 -0.328542,-0.0345275 -0.548276,-0.00651177 -0.741812,0.125768 -0.360949,0.0743554 -0.592496,-0.110019 -0.735528,-0.471498 0.318547,0.270541 0.607715,0.438258 0.792089,0.238891l0.0125692 -0.0817c-0.475814,-0.245252 -0.628689,-0.490427 -0.634974,-0.735528zm0.94928 -0.0692065c0.253505,0.199139 0.486112,0.34573 0.672681,0.377229 0.727047,0.0758697 0.959654,0.33051 1.15667,0.685251 -0.0466425,0.0477782 -0.101084,0.056183 -0.1634,0.0251385 -0.193839,-0.27357 -0.405547,-0.43909 -0.792165,-0.333236l-0.150831 0c0.0523971,-0.0482326 0.123648,-0.0838202 0.157191,-0.144546l-0.0252142 -0.0252142c-0.224202,-0.0712509 -0.362539,-0.0544415 -0.502845,0.0754911 -0.224353,0.0146136 -0.389798,-0.0293787 -0.496636,-0.131977 0.255625,0.0543657 0.435759,0.0334675 0.540629,-0.0629219l-0.0252142 -0.0565616c-0.283944,-0.145152 -0.388738,-0.280309 -0.370868,-0.408652zm5.48352 2.62379l-0.0256685 -0.115773 0.160826 -0.205878 0.083593 0.00643606c0.184374,0.107217 0.317335,0.240178 0.398884,0.398884l-0.00643606 0.0578488 -0.334523 -0.276599 -0.00651177 0.109337 0.251006 0.328163c-0.141593,0.0878332 -0.328163,-0.0129478 -0.521169,-0.302419zm0.0193082 1.67368l0.0128721 -0.0964651 0.160826 -0.212314 0.199442 -0.0321803c0.184374,0.107217 0.162946,0.265923 0.244494,0.424553l-0.0643606 0.0321803c-0.0633005,-0.15969 -0.146969,-0.284019 -0.295907,-0.392372l-0.00651177 0.102901c0.143789,0.149468 0.214434,0.309309 0.238058,0.476041 -0.141518,0.0879089 -0.295907,-0.0128721 -0.488913,-0.302343zm-5.85552 1.84677l0.277659 0.361782c0.399111,-0.0512613 0.559104,0.178847 0.387072,0.605898l0.218826 0.412286c1.27797,-0.161431 2.52816,-0.128418 3.76123,0.0252899l0.193612 -0.395477c-0.106536,-0.341262 -0.0464153,-0.529195 0.319683,-0.555318 0.0727653,-0.148711 0.190583,-0.297346 0.353453,-0.446057 -0.145909,-0.00530028 -0.291818,0.0914677 -0.437576,0.311354l-0.0420237 0c-0.0082533,-0.176802 -0.106384,-0.33104 -0.294544,-0.46279 -0.15757,0.100705 -0.168776,0.291364 -0.0336946,0.572127 -0.317335,-0.0592117 -0.499665,-0.00598175 -0.546913,0.159917 0.168322,0.151664 0.336568,0.235787 0.50489,0.252445 0.0567887,0.435759 -0.370187,0.488989 -0.622707,0.210345l-0.134627 -0.0168095c-0.313625,0.298254 -0.677149,0.256231 -0.782549,-0.117818l-0.0673136 -0.286139c0.289092,0.208225 0.36996,0.219507 0.647922,-0.0420237 -0.0193082,-0.101084 -0.16234,-0.179604 -0.429096,-0.23556 0.227458,-0.128873 0.331268,-0.32521 0.311278,-0.589088 -0.230184,0.00265014 -0.418192,0.0475511 -0.513294,0.185131l-0.0505041 -0.0252142c-0.0335432,-0.17968 -0.123269,-0.314307 -0.269254,-0.403881 -0.134854,0.0530028 -0.202168,0.184904 -0.201941,0.395477l-0.0420237 0.0252142c-0.171123,-0.141896 -0.342247,-0.234424 -0.513294,-0.218826 -0.0227912,0.244267 0.0557287,0.409787 0.23556,0.496485l-0.0168095 0.0841988c-0.120619,0.0474754 -0.230032,0.140079 -0.328163,0.277659 0.175894,0.148332 0.379197,0.177787 0.622707,0.0336189 0.016128,0.50807 -0.489443,0.714478 -0.816243,0.370263l-0.109413 -0.00840473c-0.151437,0.415088 -0.731287,0.306886 -0.757259,-0.168322 0.221552,-0.0785956 0.40108,-0.171048 0.488004,-0.294468 -0.064512,-0.0785956 -0.218826,-0.112215 -0.46279,-0.101008 0.0420237,-0.199139 0.0280158,-0.37579 -0.0420237,-0.530104 -0.0898019,0.0280158 -0.202016,0.15704 -0.336644,0.387072 -0.0673136,-0.145909 -0.224353,-0.235635 -0.471195,-0.269254zm2.77561 -0.0729167c0.202168,0 0.367082,0.15545 0.367082,0.346033 0,0.190507 -0.164914,0.345957 -0.367082,0.345957 -0.202244,0 -0.367082,-0.15545 -0.367082,-0.345957 0,-0.190583 0.164839,-0.346033 0.367082,-0.346033zm-1.86706 1.5367c-0.137959,0.05376 -0.133567,0.164839 0,0.187781 1.19695,-0.180058 2.40625,-0.16181 3.62418,-0.00779899 0.13016,0.00840473 0.145228,-0.116909 0.0469453,-0.164384 -1.24428,-0.169609 -2.46864,-0.180058 -3.67113,-0.015598z"/>
    <path id="_182921640" class="fil5" d="M8.13851 0.199442l7.8507 0 0.00598175 9.31176 -7.85668 -0.00439166 0 -9.30737 0 0zm0.935424 0.605216c0.11229,0.443785 0.461579,0.887721 0.868489,1.33166 0.082533,-0.324983 0.31726,-0.365947 0.656251,-0.212314 -0.203682,0.152648 -0.275539,0.284549 -0.15439,0.386012 0.154465,0.154162 0.334599,0.257139 0.540326,0.308779 0.230865,0.208983 0.203152,0.38268 0.0579245,0.540402 -0.0544415,0.26933 0.124557,0.29515 0.463169,0.15439l0.0386163 -0.135081 -0.064512 -0.147878c-0.20974,-0.0710238 -0.351106,-0.251006 -0.3215,-0.392524 0.275085,0.0767026 0.459383,0.057243 0.443861,-0.173698l0.0190053 -0.0707966 0.0115092 -0.0820029c-0.0988124,-0.0720838 -0.257442,-0.0842745 -0.475738,-0.0366477l-0.0365719 -0.0640577c-0.0480811,-0.191643 0.115395,-0.242147 0.375033,-0.228669 -0.0725381,-0.10805 -0.22193,-0.105021 -0.448177,0.00916191l-0.155601 0.0457339c-0.0976009,-0.361782 -0.00393735,-0.535707 0.274479,-0.521472l0.228669 -0.118953c0.181118,-0.253353 0.464683,-0.250249 0.850771,0.00916191 0.201638,0.184904 0.377607,0.164763 0.527984,-0.0603475 0.104794,0.217993 0.0590603,0.325059 -0.111684,0.417208 -0.121528,0.0976009 0.0517156,0.306281 0.205802,0.164612 0.0715538,0.212011 -0.0449767,0.306508 -0.246993,0.347623l0.00923763 0.329375c0.0541386,0.0847288 0.142578,0.118272 0.265241,0.10063 0.00234727,0.234045 -0.126601,0.336871 -0.329375,0.365947l0.164687 0.109792 -0.137202 0.109792c0.0706452,0.15492 0.199063,0.228745 0.372307,0.195732 0.206938,0.0373291 0.227988,-0.0578488 0.0759455,-0.259865 -0.160901,-0.277356 -0.182935,-0.496106 0.10063,-0.585454 0.463169,-0.198836 0.533284,-0.406229 0.210421,-0.622102l0.0237755 -0.0466425c0.247902,-0.127131 0.457944,-0.0320288 0.620511,0.182708 0.152951,-0.0530028 0.270693,-0.235181 0.372458,-0.476192 0.140533,-0.0140836 0.331268,-0.406153 0.540174,-0.847666 0.359283,0.097298 0.419404,0.408197 0.180588,0.932698 -0.172865,0.107141 -0.422205,0.444012 -0.651935,0.722125 0.173471,0.0609532 0.363978,0.010752 0.571673,-0.150452 0.264257,-0.00280158 0.501861,-0.059136 0.73212,-0.130387 0.102825,0.317108 0.00802614,0.570007 -0.521548,0.681995l-0.531542 0.110322c0.288714,0.105324 0.706603,0.163552 1.18348,0.200578 -0.00711752,0.296664 -0.16923,0.486414 -0.672,0.441286l-0.75211 -0.150452 -0.200654 -0.00999482c0.383513,0.255701 0.733332,0.440378 0.962834,0.371095 0.071781,0.127358 0.190659,0.172638 0.330889,0.180437 -0.124784,0.319531 -0.42902,0.399793 -0.912633,0.240708l-0.681919 -0.330965c0.259562,0.380787 0.570537,0.701682 0.932698,0.962834 -0.179074,0.269709 -0.426445,0.283035 -0.742115,0.040055 -0.2688,-0.216251 -0.511931,-0.466728 -0.729319,-0.751353 0.102295,0.364432 0.250552,0.748021 0.438409,1.11245 -0.277129,0.094345 -0.494365,0.000757183 -0.651859,-0.280763l-0.230638 -0.611804c-0.224429,-0.21663 -0.374048,-0.159917 -0.391161,0.170518 0.0415693,0.195732 0.168549,0.306053 0.38109,0.330889 0.290001,0.133264 0.356785,0.296891 0.270844,0.481417l0.00999482 0.0801857c0.0686765,0.190962 0.205727,0.296437 0.41115,0.316503 -0.0745825,0.119938 -0.174909,0.171578 -0.300829,0.154844 0.0240784,0.158024 0.0994939,0.264711 0.226246,0.320137 0.234348,-0.344443 0.425991,-0.477328 0.62619,-0.360192 0.175515,0.0306659 0.252369,0.147651 0.230714,0.35103 -0.066935,-0.0505798 -0.133794,-0.130235 -0.200578,-0.100251 -0.0598932,0.0618619 -0.129554,0.0890447 -0.20921,0.0816243 -0.0667078,0.0658749 0.00159008,0.090862 0.0452038,0.0823058 0.144849,-0.000227155 0.23768,0.0192324 0.27251,0.0820029 0.226246,0.0749611 0.302192,0.157721 0.292576,0.295604l-0.320894 -0.0903319c-0.0458853,0.070418 -0.102825,0.0972223 -0.170442,0.0802614 -0.0326346,-0.00757183 -0.0963894,-0.124632 -0.110397,0.0401307l-0.150377 0.210648 0.0199896 0.0801857c0.0766269,0.0129478 0.120392,-0.187251 0.180588,-0.280839 0.146666,0.0407364 0.249719,0.125238 0.309082,0.253505 0.149089,-0.124178 0.341717,-0.240254 0.643681,-0.233364 -0.1818,0.187176 -0.388283,0.374351 -0.411226,0.561603 0.0792013,0.312489 0.0466425,0.384725 -0.320894,0.531542l-0.205121 0.433942c0.101993,0.215873 0.127358,0.361252 -0.18604,0.358375 -1.10927,-0.103961 -2.31221,-0.100705 -3.60041,0 -0.256231,0.0155223 -0.288487,-0.143638 -0.170442,-0.280839l-0.1687 -0.385709c-0.385028,-0.0748854 -0.477782,-0.218069 -0.392978,-0.577125 -0.0592874,-0.183617 -0.235408,-0.341414 -0.491336,-0.481341 0.246615,-0.144773 0.460594,-0.114638 0.641788,0.0902562 0.0748097,-0.156964 0.204288,-0.266074 0.454007,-0.269936 -0.00340732,-0.0713266 0.0982066,-0.193157 -0.203228,-0.111154l-0.110322 -0.0201411c-0.155828,0.0222612 -0.246084,0.0991153 -0.270769,0.230714 -0.103734,-0.199745 -0.102825,-0.285458 0.227912,-0.474224l0.363751 -0.0573188 -0.0401307 -0.100327 -0.200578 -0.0701909 -0.250703 0.0701909c-0.023397,-0.153784 0.0601203,-0.254035 0.250703,-0.300829 0.310899,-0.143713 0.514809,-0.0334675 0.611804,0.330965 0.147045,-0.0869246 0.254035,-0.214056 0.320894,-0.38109 -0.198912,0.0534571 -0.342701,-0.00333161 -0.461276,-0.110322 0.320818,-0.0870003 0.494668,-0.22405 0.521472,-0.471346 -0.0402064,-0.244116 0.0667835,-0.381166 0.320894,-0.411226 0.210573,-0.106914 0.300829,-0.277508 0.270769,-0.571673 -0.130387,-0.13705 -0.264105,-0.113653 -0.34096,0.0702666l-0.160447 0.471346c-0.223975,0.384422 -0.448025,0.541537 -0.671924,0.471346 0.143789,-0.364432 0.264105,-0.728864 0.300829,-1.09322 -0.432049,0.644817 -0.851604,1.08466 -1.36391,0.792316 0.264105,-0.354362 0.598402,-0.698729 0.792241,-1.06308 -0.74893,0.439696 -1.31046,0.573415 -1.52436,0.130387 0.432957,-0.173016 0.823967,-0.348531 1.20347,-0.601733l-0.712055 0.150452c-0.468015,0.140382 -0.748778,0.0267286 -0.842442,-0.34096 0.451508,-0.0936635 0.886283,-0.190583 1.20347,-0.310899 -1.02629,-0.0802614 -1.18673,-0.317638 -1.11313,-0.762256 0.481417,0.133719 0.899231,0.223975 1.27358,0.250779l-0.621723 -0.732196c-0.320591,-0.441741 -0.199745,-0.717961 0.121604,-0.918917zm3.71595 6.39297c0.173849,0.0658749 0.284398,0.173849 0.331798,0.323923 -0.144849,0.237074 -0.363448,0.305523 -0.655721,0.205499 0.131296,0.287805 0.460594,0.357012 0.639895,0.0236998 -0.013175,-0.102825 0.0368748,-0.173849 0.150149,-0.213374 0.168473,0.0316503 0.210648,0.12645 0.12645,0.284474 0.115849,0.297497 0.376547,0.326497 0.568872,0.0157494l-0.0553501 -0.102674c-0.213374,0.0342247 -0.384498,-0.0580002 -0.513522,-0.276523 -0.0290001,-0.142199 0.110549,-0.242374 0.418722,-0.300223 -0.0316503,-0.273873 -0.17915,-0.347623 -0.442498,-0.221249l-0.173774 0.0157494c-0.0763998,-0.0289244 -0.1528,-0.0157494 -0.229124,0.0396007 -0.0552744,0.0684493 -0.110624,0.136899 -0.165899,0.205348zm-0.537297 -0.718945l0.0870003 0.268649c0.218523,-0.159387 0.421221,-0.214737 0.639895,-0.142199l-0.0078747 0.0868489 0.221173 -0.110624 -0.0236998 -0.173774 -0.252823 -0.331873c-0.0605746,0.0895748 -0.163249,0.147499 -0.308098,0.173849 0.0526999,-0.339748 0.039525,-0.613621 -0.118575,-0.742721 -0.0305145,-0.0321046 -0.0891204,-0.106308 -0.142199,0.0553501 -0.0856374,0.634822 0.161886,0.805946 0.560997,0.766345 -0.107974,0.16075 -0.294923,0.242374 -0.655796,0.150149zm-1.35104 -0.00795042c0.0829873,-0.150074 0.185661,-0.300147 0.331873,-0.450297l0.260698 0.0947993c-7.57183e-005,-0.269936 0.0130993,-0.493759 0.0552744,-0.616271 0.0632248,-0.0578488 0.12645,-0.0526242 0.189674,0.0157494 0.0789742,0.266074 0.0316503,0.500498 -0.142199,0.703196l-0.434623 0.0237755c0.199518,0.189599 0.424704,0.276523 0.687446,0.213298l-0.0869246 0.268649c-0.147424,-0.189674 -0.368748,-0.242374 -0.663671,-0.158024l0 -0.0790499 -0.197549 -0.0158251zm-0.560921 1.38269l0.0789742 0.158024c0.168473,0.0348304 0.287048,-0.0428566 0.371323,-0.197473l-0.0394492 -0.1107 -0.0316503 -0.0315745c-0.117136,0.0882875 -0.241011,0.156813 -0.379197,0.181724zm0.73477 -0.229124l-0.0236998 0.197549c0.282581,0.214131 0.45166,0.242829 0.600446,0.039525l0.0078747 -0.12645c-0.215949,0.0473239 -0.410848,0.0105248 -0.584621,-0.110624zm-0.774295 -0.387148l0.0710995 -0.363448c0.12645,-0.0605746 0.316048,-0.0578488 0.568872,0.0078747l0.142275 0.0869246 0.0710238 -0.0394492 0.134324 0.252823c-0.172941,0.109034 -0.293181,0.235787 -0.339672,0.387148l-0.0870003 0c0.013175,-0.258199 -0.173774,-0.368748 -0.560921,-0.331873z"/>
    <path id="_182921856" class="fil4" d="M11.3197 2.76175c0.270239,0.0117363 0.42425,-0.107141 0.408576,-0.417132 0.105173,-0.161734 0.0853345,-0.323469 -0.059666,-0.485127 -0.272207,-0.212768 -0.279628,-0.407516 -0.0425537,-0.510796 0.196868,-0.0211254 0.37632,0.00121149 0.527832,0.0935878 0.124784,0.17029 0.306432,0.204364 0.544793,0.102144 0.0141593,0.0738253 -0.0738253,0.113577 -0.1107,0.17029 -0.102144,0.158857 -0.0680708,0.272359 0.102144,0.340505l0.119181 -0.0170366c-0.0283944,0.0936635 -0.124859,0.141896 -0.289395,0.144698 0.0292273,0.170669 0.040585,0.332479 0.0340732,0.485279 0.0347547,0.0932849 0.114107,0.133037 0.238286,0.119105 -0.0358905,0.191492 -0.21928,0.24669 -0.348986,0.0851074 -0.0313474,0.113502 -0.018021,0.227079 0.0935878,0.340581 -0.116833,0.0445224 -0.261682,0.00302873 -0.360495,-0.238437 -0.0976766,0.192779 -0.210951,0.269406 -0.38003,0.229881l0.153178 -0.289471c-0.130463,0.123042 -0.261001,0.165596 -0.391539,0.127737 0.136444,-0.109943 0.205802,-0.214359 0.127737,-0.306432 -0.135157,0.191492 -0.335659,0.207847 -0.366022,0.0255171zm0.444315 -1.25768c0.0757183,0 0.137429,0.0617104 0.137429,0.137353 0,0.0757183 -0.0617104,0.137429 -0.137429,0.137429 -0.0757183,0 -0.137353,-0.0617104 -0.137353,-0.137429 0,-0.0756426 0.0616347,-0.137353 0.137353,-0.137353zm-2.72919 -0.488686c0.262515,0.476117 0.5666,0.938301 1.01955,1.35089 -0.0226398,-0.275539 0.107899,-0.392448 0.359965,-0.414331 -0.222082,0.291591 -0.116682,0.526545 0.506707,0.775961 0.128948,0.0560315 0.163022,0.164839 0.101917,0.326573 -0.225262,0.353453 0.0805643,0.582804 0.560694,0.331343l0.0509584 -0.0891962c0.220416,0.0676922 0.407819,0.0628462 0.522532,-0.101993 0.0646634,0.126525 0.182481,0.199821 0.395098,0.178468 0.0531542,0.155374 0.198761,0.251385 0.547973,0.21663 0.0979795,-0.0422508 0.156283,-0.124102 0.12751,-0.293106 -0.264408,-0.292651 -0.285609,-0.4796 -0.0637548,-0.56077 0.442271,-0.165975 0.578261,-0.395401 0.407743,-0.688204 0.235105,-0.0667835 0.332782,0.0988881 0.293106,0.497091 0.226549,-0.245024 0.418722,-0.498605 0.56077,-0.764679l0.0891962 -0.0382377 0.458853 -0.802917c0.216403,0.266226 0.226928,0.541007 -0.0637548,0.828434 -0.246387,0.344215 -0.49285,0.631869 -0.739162,0.828358 0.333236,0.0187781 0.613545,-0.0365719 0.841079,-0.165672l0.649966 -0.140155c0.0592874,0.247296 -0.066405,0.44848 -0.599007,0.547973l-0.955716 0.114638c0.362615,0.0877575 0.701,0.199442 1.13418,0.216706l0.522532 0.127434c-0.0369505,0.213753 -0.237074,0.315821 -0.675483,0.254868 -0.219659,-0.0552744 -0.464456,-0.110549 -0.726366,-0.165672 -0.174758,0.0312717 -0.330813,0.00681465 -0.484294,-0.0254413 0.330738,0.280915 0.761878,0.461427 1.26169,0.57349l0.229351 0.165596c-0.1344,0.148105 -0.385103,0.16923 -0.751883,0.0637548 -0.336871,-0.119256 -0.648527,-0.276145 -0.943071,-0.458777 0.252672,0.457944 0.59772,0.858267 1.01955,1.21066 -0.280688,0.316881 -0.774674,-0.119256 -1.41465,-1.07051 0.0418722,0.48278 0.184071,0.952991 0.395098,1.41465 -0.254565,0.0266528 -0.471574,-0.32309 -0.662687,-0.930351 -0.217993,-0.22299 -0.406229,-0.224656 -0.56077,0.101917 0.000681465,0.313701 0.128115,0.500649 0.382377,0.56077 0.236393,0.0481568 0.37367,0.16499 0.293106,0.382377 -0.0122664,0.195202 0.08117,0.348077 0.280385,0.458777 -0.127585,0.0630733 -0.276296,-0.000681465 -0.446057,-0.191189 -0.0299844,0.231092 -0.10222,0.388283 -0.216706,0.471574 0.0415693,-0.237907 0.0169609,-0.47589 -0.152875,-0.713721 -0.173925,-0.0970709 -0.284322,-0.0673893 -0.331343,0.0891962 -0.0988124,0.393357 -0.0390706,0.727199 0.369581,0.930351 -0.128948,0.0424022 -0.300753,0.00757183 -0.535253,-0.14023 -0.23344,0.110019 -0.424628,0.135536 -0.57349,0.0764755 0.281672,-0.035209 0.404866,-0.32415 0.369505,-0.866596 -0.116833,-0.198761 -0.244192,-0.228518 -0.382226,-0.0891962 -0.129175,0.203909 -0.141972,0.407819 -0.101993,0.611728 -0.144092,0.0118878 -0.201032,-0.137353 -0.218372,-0.463623 -0.143865,0.173168 -0.28773,0.251233 -0.431594,0.234197 0.103658,-0.131144 0.25093,-0.142426 0.254868,-0.547973 0.0152951,-0.159084 0.104416,-0.265241 0.267664,-0.318623 0.277356,-0.0412665 0.396385,-0.262137 0.356785,-0.662687 -0.182557,-0.219886 -0.343988,-0.228366 -0.484219,-0.0254413 -0.147726,0.530482 -0.341641,0.915661 -0.637245,0.981233 0.16552,-0.441892 0.288638,-0.904985 0.369581,-1.38913 -0.596054,0.777854 -1.12745,1.33817 -1.42729,1.12154 0.367764,-0.402443 0.685251,-0.829873 0.968513,-1.27441 -0.870382,0.53283 -1.50528,0.75423 -1.7204,0.420539 0.55706,-0.229048 1.08625,-0.472104 1.51649,-0.764679 -0.446057,0.057243 -0.892113,0.134173 -1.33809,0.254944 -0.305751,0.0305145 -0.466273,-0.0697366 -0.56077,-0.229426 0.599992,-0.108201 1.15372,-0.236241 1.60576,-0.407819l-0.99403 -0.127434c-0.488459,-0.0876061 -0.61347,-0.29144 -0.57349,-0.547973 0.505495,0.161204 1.01099,0.280082 1.51656,0.356785 -0.286139,-0.283868 -0.559028,-0.574399 -0.802917,-0.879317 -0.1977,-0.288411 -0.263273,-0.543809 -0.0382377,-0.726441zm0.322106 5.96501l0.303555 0.355952c0.390858,0.0523213 0.516475,0.258124 0.376926,0.617634l0.167565 0.335053c1.22452,-0.141442 2.46751,-0.163324 3.73746,-0.0104491l0.240784 -0.429247c-0.171275,-0.383513 -0.0595903,-0.585984 0.334978,-0.607261l0.261758 -0.334978c-0.150907,0.0385406 -0.290531,0.122209 -0.418722,0.251233 -0.0463396,-0.116833 -0.126677,-0.211027 -0.240784,-0.282656l-0.178014 0.356027 0.0314231 0.115092c-0.198231,-0.0202168 -0.342625,0.0134021 -0.450221,0.0837444 0.108277,0.129857 0.261834,0.203228 0.46067,0.219886l0.0732953 0.178014c-0.149468,0.461427 -0.570386,0.424931 -0.753776,0.0941936l-0.0837444 0c-0.428187,0.393584 -0.908014,0.113047 -0.900366,-0.387375 0.294468,0.0594389 0.51814,0.0763998 0.586287,0 0.0367234,-0.0922249 -0.0736739,-0.184526 -0.33104,-0.27675 0.155071,-0.205878 0.259335,-0.386315 0.278643,-0.592193l-0.554788 0.188463c-0.0383892,-0.104718 -0.0907862,-0.209361 -0.157115,-0.31408 -0.0558801,-0.0339218 -0.111684,-0.0339218 -0.167413,0 -0.069888,0.0837444 -0.125768,0.195505 -0.167565,0.334978 -0.157948,-0.109034 -0.337628,-0.183995 -0.523441,-0.209361 -0.048914,0.230335 0.0417965,0.40479 0.272132,0.523441l-0.0208983 0.0838202c-0.125617,-0.00355876 -0.251233,0.0627705 -0.37685,0.198912 0.139549,0.132583 0.331419,0.195353 0.638532,0.104643 0.0297573,0.523592 -0.368142,0.746885 -0.858418,0.366477l-0.0837444 -0.0314988c-0.00355876,0.191946 -0.188539,0.258275 -0.554864,0.198988l-0.136142 -0.31408c0.178014,-0.069888 0.408273,-0.108201 0.53389,-0.30363 0.0140079,-0.115168 -0.167489,-0.160523 -0.544339,-0.136066 0.0243813,-0.171048 0.146591,-0.342095 -0.020974,-0.512992 -0.125011,0.0261228 -0.237983,0.148332 -0.334978,0.397748 -0.146591,-0.0872275 -0.272207,-0.289623 -0.439696,-0.261682zm2.69368 -0.13652c0.21504,0 0.390404,0.164006 0.390404,0.365114 0,0.200956 -0.175364,0.364887 -0.390404,0.364887 -0.21504,0 -0.390479,-0.16393 -0.390479,-0.364887 0,-0.201108 0.175439,-0.365114 0.390479,-0.365114zm-1.76552 1.56184c1.18317,-0.158781 2.39868,-0.166505 3.64985,-0.00848045 0.133037,0.0223369 0.113502,0.166883 -0.0170366,0.127282 -1.20188,-0.0910891 -2.39414,-0.0957079 -3.57337,0.0170366 -0.0786713,0.0217312 -0.178468,-0.0670864 -0.0594389,-0.135839z"/>
    <path id="_182922144" class="fil3" d="M11.0344 6.69236l-0.0383135 0.0957837c0.0489897,-0.00174152 0.0979038,0.0174152 0.146894,0.0574702 -0.00492169,-0.0511099 -0.00590603,-0.106081 -0.10858,-0.153254z"/>
    <path id="_182923416" class="fil3" d="M11.2516 1.57994c0.0402064,0.045961 0.0864703,0.0677679 0.138867,0.0653449l-0.00817758 -0.114335c-0.0617104,-0.0200654 -0.105248,-0.0037102 -0.13069,0.0489897zm-0.300147 0.354059c0.153027,-0.0997967 0.31938,-0.133113 0.499059,-0.0997967l-0.0399793 -0.149771 -0.0898019 0.0299844c-0.0665564,-0.0399035 -0.123042,-0.0997967 -0.199593,-0.119786 -0.136444,0.0333161 -0.19293,0.146439 -0.169685,0.339369zm0.264635 0.240557c0.18339,-0.0439923 0.337098,-0.00901048 0.470589,0.0799585 0.0580759,-0.158781 0.00174152,-0.271753 -0.106536,-0.364054l0.0177938 0.177635c-0.268724,-0.0143865 -0.395931,0.0210497 -0.381847,0.10646zm3.1118 4.27801c-0.0205954,0.0361176 -0.0252142,0.072311 -0.0139322,0.108504 0.0724624,-0.00567887 0.144925,0.0227912 0.217387,0.0492169 -0.00340732,-0.0470211 -0.0528514,-0.0979795 -0.203455,-0.157721zm-0.124784 -0.464002l0.0184753 0.106687c0.0477025,-0.00613318 0.0862431,0.0247599 0.129403,0.0371777 -0.0168095,-0.0619376 -0.0444466,-0.119256 -0.147878,-0.143865zm-0.421372 0.830857c0.106536,-0.00901048 0.160901,-0.0701909 0.163173,-0.183617 0.0134779,-0.111987 0.0792013,-0.13016 0.19717,-0.0543657l0.0735225 0.0314231c-0.0138564,-0.0707209 -0.0016658,-0.123421 0.0420994,-0.187781 -0.0720838,-0.0314988 -0.165066,-0.0473997 -0.278795,-0.0476268 -0.111609,-0.0634519 -0.0764755,-0.12698 -0.0203682,-0.190432 0.0679193,-0.0226398 0.163324,-0.0179452 0.203985,-0.067995l-0.0476268 -0.163249c-0.210951,-0.0122664 -0.369505,0.121452 -0.476041,0.401231 -0.0296059,0.0265014 -0.0645877,0.0449767 -0.108807,0.0204439l-0.237983 -0.339975 -0.251612 -0.197246c-0.0396764,0.0695851 -0.05323,0.144395 -0.0408122,0.224353l0.326422 0.408046c0.0547443,0.117288 0.0103734,0.187554 -0.133264,0.2108 0.0342247,0.0657235 0.0424022,0.131523 0.024457,0.197246l0.088439 -0.0136293c0.144395,-0.0922249 0.300375,-0.122436 0.476041,-0.0476268zm-0.782094 0.0748097c0.0544415,-0.0412665 0.104946,-0.0342247 0.159311,-0.0337704 0.00772327,-0.0640577 -0.0159008,-0.107141 -0.0708723,-0.129403 -0.0555772,0.0387678 -0.0850317,0.0931335 -0.088439,0.163173zm-3.05031 -0.93338c0.0266528,0.0433109 0.0266528,0.0866217 0,0.130084 -0.048384,-0.0285458 -0.10275,-0.0140836 -0.160068,0.0199139 0.0149922,-0.0692065 0.0739768,-0.116455 0.160068,-0.149998zm-0.140079 0.4902c0.0377834,0.0288487 0.0488383,0.0666321 0.0333918,0.11335 -0.0623162,-0.0100705 -0.13228,0.0132507 -0.203455,0.0567887 0.0283944,-0.0757183 0.088439,-0.13016 0.170063,-0.170139zm1.15046 -0.590224l-0.330132 0.52026 -0.0900291 -0.0300602c-0.0716295,-0.260244 -0.201714,-0.43697 -0.460216,-0.430231 0.0188539,0.056713 0.015598,0.11335 -0.00999482,0.170139 0.170063,0.0199139 0.246842,0.106611 0.230108,0.260092l-0.380182 0.0399793c0.0367234,0.0600446 0.0467182,0.120089 0.0300602,0.180134 0.300072,-0.0934364 0.400171,-0.040055 0.300072,0.160068l0.0701151 0.0700394c0.196716,-0.0901048 0.393508,-0.1001 0.590224,-0.0300602l0.0700394 -0.170063 -0.170139 -0.0399793 0.350197 -0.5903c0.00159008,-0.14394 -0.0651177,-0.180664 -0.200123,-0.110019zm-0.0534571 1.81701c0.0319531,0 0.0580002,0.0267286 0.0580002,0.0593631 0,0.0327103 -0.0260471,0.0593631 -0.0580002,0.0593631 -0.0319531,0 -0.0580002,-0.0266528 -0.0580002,-0.0593631 0,-0.0326346 0.0260471,-0.0593631 0.0580002,-0.0593631zm1.16712 -0.723867c0.137883,0 0.2504,0.115092 0.2504,0.256155 0,0.141063 -0.112517,0.256155 -0.2504,0.256155 -0.137807,0 -0.250325,-0.115092 -0.250325,-0.256155 0,-0.141063 0.112517,-0.256155 0.250325,-0.256155zm1.19082 0.67783c0.0320288,0 0.0580002,0.0266528 0.0580002,0.0593631 0,0.0326346 -0.0259714,0.0593631 -0.0580002,0.0593631 -0.0318774,0 -0.0578488,-0.0267286 -0.0578488,-0.0593631 0,-0.0327103 0.0259714,-0.0593631 0.0578488,-0.0593631zm1.23186 -0.284852c0.0878332,0.149847 0.0324074,0.279325 -0.166429,0.388283l-0.0647391 0c-0.075264,-0.228064 -0.0417965,-0.385709 0.231168,-0.388283zm-4.79615 0.153557c-0.0879089,0.149998 -0.0324074,0.279401 0.166353,0.388359l0.0648149 0c0.075264,-0.227988 0.0417208,-0.385709 -0.231168,-0.388359z"/>
   </g>
   <path id="_127695928" class="fil6" d="M21.5528 3.21447l0 5.88036 -1.65543 0 0 -5.88036 -1.21876 0 0 -1.107 4.08273 0 0 1.107 -1.20854 0zm5.45376 1.05619c0,-0.446814 -0.0812457,-0.780277 -0.243737,-1.00039 -0.162491,-0.220037 -0.463775,-0.330056 -0.903925,-0.330056 -0.101538,0 -0.191264,0.00848045 -0.269103,0.0254413 -0.0778384,0.0168852 -0.147272,0.0389192 -0.208225,0.0659506l0 2.55935c0.0338461,0.0135536 0.0829873,0.0236998 0.147272,0.0305145 0.0643606,0.00673893 0.133719,0.0101463 0.208225,0.0101463 0.426521,0 0.744765,-0.120241 0.954656,-0.360571 0.209891,-0.24033 0.314837,-0.573793 0.314837,-1.00039zm0.050807 4.82416l-1.65543 -3.08749 -0.0203682 0 0 3.08749 -1.62491 0 0 -6.68275c0.257291,-0.121831 0.563647,-0.220037 0.919069,-0.294468 0.355497,-0.0745068 0.749914,-0.11176 1.18317,-0.11176 0.473997,0 0.883633,0.050807 1.22891,0.152345 0.345351,0.101614 0.631415,0.247145 0.858191,0.436743 0.226852,0.189599 0.396082,0.419782 0.507843,0.690627 0.111684,0.270769 0.167565,0.572127 0.167565,0.903849 0,0.230184 -0.0406607,0.445224 -0.121906,0.644893 -0.0812457,0.199745 -0.194672,0.377531 -0.340202,0.533208 -0.145606,0.155753 -0.316503,0.286064 -0.512916,0.391009 -0.196338,0.104946 -0.409636,0.174379 -0.63982,0.208225l0 0.0202925 1.85858 3.10778 -1.80777 0zm2.69133 0l0 -6.98736 3.57496 0 0 1.107 -1.91946 0 0 1.77726 1.67572 0 0 1.07656 -1.67572 0 0 1.91953 1.91946 0 0 1.107 -3.57496 0zm8.71397 0l-2.32569 -3.92024c-0.108353,-0.18286 -0.196413,-0.350424 -0.264105,-0.50277 -0.0676922,-0.152345 -0.101538,-0.228518 -0.101538,-0.228518l-0.0202925 0c0,0 0.00673893,0.0779141 0.0202925,0.233591 0.0135536,0.155753 0.0202925,0.331798 0.0202925,0.528135l0 3.8898 -1.38125 0 0 -6.98736 1.45235 0 2.1429 3.58503c0.108353,0.176045 0.194672,0.331798 0.259032,0.467182 0.0642848,0.13546 0.0964651,0.203152 0.0964651,0.203152l0.0202925 0c0,0 -0.00673893,-0.0710995 -0.0202925,-0.213298 -0.0135536,-0.142199 -0.0202925,-0.30469 -0.0202925,-0.487474l0 -3.5546 1.3914 0 0 6.98736 -1.26957 0zm5.38274 -7.6374c-0.128645,0.128645 -0.284322,0.193006 -0.467182,0.193006 -0.176045,0 -0.32839,-0.0643606 -0.457036,-0.193006l-1.07649 -1.07656 0.426521 -0.375714 1.11715 0.782019 1.10708 -0.782019 0.416375 0.375714 -1.06642 1.07656zm1.27972 7.32257c-0.358905,0.277583 -0.870079,0.416375 -1.5336,0.416375 -0.473921,0 -0.883557,-0.0981309 -1.22891,-0.294468 -0.345275,-0.196413 -0.631339,-0.460443 -0.858191,-0.792241 -0.226776,-0.331722 -0.394341,-0.714251 -0.502694,-1.14759 -0.108353,-0.433336 -0.162491,-0.886964 -0.162491,-1.36096 0,-0.460367 0.0558044,-0.907257 0.167565,-1.34059 0.111684,-0.433336 0.280991,-0.817531 0.507767,-1.15274 0.226852,-0.335129 0.514582,-0.602566 0.863264,-0.802311 0.348759,-0.199745 0.756653,-0.299617 1.22383,-0.299617 0.345275,0 0.641561,0.0355876 0.88863,0.106687 0.247145,0.0710995 0.458777,0.170896 0.634822,0.299542l-0.355497 0.995317c-0.0947993,-0.0541386 -0.206484,-0.103204 -0.335129,-0.147272 -0.128645,-0.0439923 -0.287805,-0.0660264 -0.477328,-0.0660264 -0.270844,0 -0.495955,0.0694337 -0.675407,0.208225 -0.179452,0.138792 -0.324983,0.31991 -0.436743,0.543355 -0.111684,0.223445 -0.191264,0.47907 -0.238664,0.766799 -0.0473997,0.28773 -0.0710995,0.580608 -0.0710995,0.878484 0,0.297952 0.0271072,0.587347 0.0812457,0.868338 0.0542143,0.280991 0.137126,0.531542 0.248886,0.75158 0.111684,0.220037 0.257291,0.396082 0.436667,0.528135 0.179452,0.131977 0.394417,0.198003 0.644893,0.198003 0.196413,0 0.350424,-0.0186267 0.462109,-0.0558801 0.11176,-0.0371777 0.225186,-0.0896505 0.340278,-0.157418l0.37579 1.05627zm0.934364 0.314837l0 -6.98736 1.64528 0 0 6.98736 -1.64528 0zm5.54515 -4.7124c-0.0676922,-0.243737 -0.111684,-0.445224 -0.131977,-0.604308 -0.0203682,-0.159084 -0.0305145,-0.238664 -0.0305145,-0.238664l-0.0202925 0c0,0 -0.0118878,0.0778384 -0.0355876,0.233591 -0.0236998,0.155753 -0.0727653,0.358829 -0.147196,0.609381l-0.650042 2.27496 1.63514 0 -0.619527 -2.27496zm1.26949 4.7124l-0.426521 -1.49294 -2.10232 0 -0.446889 1.49294 -1.47257 0 2.27496 -6.98736 1.60462 0 2.26481 6.98736 -1.69609 0zm6.44916 0l-2.32569 -3.92024c-0.108353,-0.18286 -0.196413,-0.350424 -0.264105,-0.50277 -0.0676922,-0.152345 -0.101538,-0.228518 -0.101538,-0.228518l-0.0202925 0c0,0 0.00673893,0.0779141 0.0202925,0.233591 0.0135536,0.155753 0.0202925,0.331798 0.0202925,0.528135l0 3.8898 -1.38125 0 0 -6.98736 1.45235 0 2.1429 3.58503c0.108353,0.176045 0.194672,0.331798 0.259032,0.467182 0.0642848,0.13546 0.0964651,0.203152 0.0964651,0.203152l0.0202925 0c0,0 -0.00673893,-0.0710995 -0.0202925,-0.213298 -0.0135536,-0.142199 -0.0202925,-0.30469 -0.0202925,-0.487474l0 -3.5546 1.3914 0 0 6.98736 -1.26957 0zm6.41864 -2.09217c0,0.318244 -0.0575459,0.611047 -0.172638,0.878484 -0.115092,0.267513 -0.275917,0.497696 -0.482401,0.690627 -0.206484,0.193006 -0.453628,0.345351 -0.741358,0.457036 -0.287805,0.11176 -0.604308,0.167565 -0.949659,0.167565 -0.43326,0 -0.797238,-0.0355119 -1.09178,-0.106611 -0.294468,-0.0710995 -0.539947,-0.174379 -0.736285,-0.309764l0.37579 -1.14766c0.115092,0.0745068 0.270844,0.147272 0.467182,0.218372 0.196338,0.0710995 0.416375,0.106611 0.660112,0.106611 0.291137,0 0.519655,-0.0761726 0.685554,-0.228442 0.165899,-0.152345 0.24881,-0.353832 0.24881,-0.604308 0,-0.223445 -0.0727653,-0.413043 -0.218372,-0.56872 -0.145531,-0.155753 -0.397748,-0.311505 -0.756577,-0.467182 -0.270844,-0.121906 -0.495955,-0.259032 -0.675407,-0.411378 -0.179452,-0.152345 -0.321576,-0.313095 -0.426521,-0.482401 -0.104946,-0.16923 -0.179452,-0.341944 -0.223445,-0.517989 -0.0439923,-0.175969 -0.0660264,-0.348683 -0.0660264,-0.517913 0,-0.291137 0.050807,-0.56872 0.152345,-0.832826 0.101538,-0.26403 0.24881,-0.492548 0.441816,-0.685554 0.19293,-0.19293 0.426521,-0.346941 0.700773,-0.462109 0.274176,-0.115092 0.580532,-0.172638 0.919069,-0.172638 0.379197,0 0.70418,0.0389192 0.975025,0.116833 0.270844,0.0778384 0.490882,0.174304 0.660112,0.289395l-0.345275 1.00546c-0.121906,-0.0744311 -0.27251,-0.143865 -0.451963,-0.20815 -0.179452,-0.0643606 -0.377456,-0.0965408 -0.594162,-0.0965408 -0.277583,0 -0.487474,0.0710995 -0.629673,0.213298 -0.142123,0.142199 -0.213223,0.338537 -0.213223,0.589088 0,0.257291 0.0829115,0.458701 0.24881,0.604232 0.165899,0.145606 0.397748,0.286064 0.6957,0.421524 0.338537,0.155677 0.609305,0.316503 0.812457,0.482401 0.203152,0.165899 0.358829,0.336871 0.467182,0.512916 0.108353,0.175969 0.179452,0.353756 0.213298,0.533133 0.0338461,0.179452 0.0507313,0.357163 0.0507313,0.533208zm4.48904 2.09217l-1.72653 -3.4632 -0.0202925 0 0 3.4632 -1.63514 0 0 -6.98736 1.63514 0 0 3.14837 0.0202925 0 1.75697 -3.14837 1.68594 0 -1.98041 3.20932 2.11246 3.77804 -1.84844 0zm5.45384 -2.93514l0 2.93514 -1.64528 0 0 -2.93514 -1.84844 -4.05222 1.72653 0 1.00546 2.64052 0.0202925 0 1.05627 -2.64052 1.55389 0 -1.86873 4.05222z"/>
   <path id="_127696504" class="fil6" d="M21.31 15.1243c0,0.211557 -0.0379349,0.405926 -0.11388,0.583031 -0.0758697,0.177105 -0.180512,0.330056 -0.313928,0.458853 -0.133416,0.128797 -0.293257,0.228821 -0.479524,0.300147 -0.186343,0.0712509 -0.389874,0.106914 -0.610668,0.106914 -0.285155,0 -0.519806,-0.0241541 -0.703802,-0.0724624 -0.183995,-0.0482326 -0.340354,-0.113805 -0.469151,-0.19664l0.213904 -0.614075c0.0827601,0.0551986 0.190886,0.105778 0.324226,0.151815 0.133416,0.045961 0.28985,0.0689794 0.469226,0.0689794 0.234575,0 0.419782,-0.0667078 0.555469,-0.200048 0.135687,-0.133416 0.203531,-0.310521 0.203531,-0.531315 0,-0.179377 -0.0563344,-0.330056 -0.169079,-0.451963 -0.112669,-0.121906 -0.302419,-0.238058 -0.56925,-0.348456 -0.193157,-0.0827601 -0.352999,-0.174758 -0.479524,-0.275993 -0.12645,-0.10116 -0.226549,-0.20815 -0.300147,-0.320818 -0.0735982,-0.112745 -0.125314,-0.228896 -0.155223,-0.348456 -0.0299087,-0.119635 -0.0448252,-0.236923 -0.0448252,-0.351863 0,-0.188614 0.0333161,-0.366855 0.100024,-0.534798 0.0667078,-0.167867 0.160977,-0.3162 0.282884,-0.444996 0.121906,-0.128797 0.270239,-0.230032 0.445072,-0.30363 0.174758,-0.0735982 0.372534,-0.110397 0.593404,-0.110397 0.239194,0 0.446132,0.0252899 0.620966,0.0758697 0.174758,0.0506555 0.315064,0.115016 0.420918,0.193233l-0.193233 0.538206c-0.0828358,-0.0505798 -0.187479,-0.0988881 -0.313928,-0.144925 -0.126525,-0.045961 -0.265696,-0.0689794 -0.417435,-0.0689794 -0.220795,0 -0.389874,0.062089 -0.507161,0.186267 -0.117288,0.124254 -0.175969,0.292121 -0.175969,0.503678 0,0.207014 0.0678436,0.366855 0.203531,0.4796 0.135763,0.112669 0.307038,0.212693 0.514052,0.300147 0.234651,0.0965408 0.422054,0.201259 0.56236,0.313928 0.140306,0.112669 0.248432,0.228821 0.324301,0.348456 0.0758697,0.119559 0.125314,0.239194 0.148332,0.358753 0.0230184,0.119635 0.0345275,0.236923 0.0345275,0.351939zm2.51854 -2.02168c-0.0506555,-0.174834 -0.0839716,-0.313928 -0.1001,-0.417435 -0.0160523,-0.103507 -0.0241541,-0.155298 -0.0241541,-0.155298l-0.0137807 0c0,0 -0.00802614,0.0517913 -0.0241541,0.155298 -0.016128,0.103507 -0.0517156,0.242601 -0.106914,0.417435l-0.510644 1.66974 1.26964 0 -0.489897 -1.66974zm0.979719 3.40164l-0.365644 -1.22126 -1.53178 0 -0.3795 1.22126 -0.786562 0 1.57312 -4.74716 0.82798 0 1.56631 4.74716 -0.903925 0zm5.29226 0c0,-0.0183995 -0.00810186,-0.109262 -0.0241541,-0.27251 -0.016128,-0.163324 -0.0356633,-0.361101 -0.0586817,-0.593404 -0.0230184,-0.232304 -0.0471725,-0.481871 -0.0724624,-0.748627 -0.0252899,-0.266831 -0.0494441,-0.512916 -0.0724624,-0.738329 -0.0229426,-0.225413 -0.0413422,-0.412816 -0.0551986,-0.56236 -0.0137807,-0.149468 -0.0206711,-0.224202 -0.0206711,-0.224202 -0.0137807,-0.147196 -0.0206711,-0.27834 -0.0206711,-0.393357 0,-0.119559 0,-0.179377 0,-0.179377l-0.0138564 0c0,0 -0.0114335,0.0575459 -0.0344518,0.172486 -0.0230184,0.115016 -0.0575459,0.248432 -0.103507,0.400247 0,0.0045431 -0.0149922,0.0597417 -0.0448252,0.165596 -0.0299087,0.105778 -0.0713266,0.249492 -0.124254,0.431216 -0.0528514,0.181724 -0.109186,0.378364 -0.169003,0.589921 -0.0598175,0.211633 -0.121906,0.427808 -0.186343,0.648603 -0.0643606,0.220795 -0.123042,0.424325 -0.175894,0.610668 -0.0529271,0.186267 -0.0977523,0.342701 -0.134551,0.469151 -0.0367991,0.126525 -0.0598175,0.201259 -0.0690551,0.224278l-0.496788 0c-0.00916191,-0.0230184 -0.0367991,-0.116152 -0.0827601,-0.279476 -0.0460367,-0.163249 -0.102371,-0.362236 -0.169079,-0.596812 -0.0667078,-0.234575 -0.137959,-0.484143 -0.213904,-0.748627 -0.0758697,-0.264484 -0.145985,-0.509433 -0.210421,-0.734846 -0.0644363,-0.225413 -0.117288,-0.412816 -0.158706,-0.56236 -0.0414179,-0.149468 -0.062089,-0.224202 -0.062089,-0.224202 -0.0414179,-0.147196 -0.074734,-0.27834 -0.100024,-0.393357 -0.0252899,-0.11494 -0.0380106,-0.172486 -0.0380106,-0.172486l-0.0137807 0c0,0 0,0.0575459 0,0.172486 0,0.115016 -0.00689037,0.24616 -0.0206711,0.393357 0,0 -0.00689037,0.074734 -0.0207468,0.224202 -0.0137807,0.149544 -0.0321803,0.336946 -0.0551986,0.56236 -0.0229426,0.225413 -0.0470968,0.470362 -0.0723867,0.734846 -0.0253656,0.264484 -0.0494441,0.514052 -0.0724624,0.748627 -0.0230184,0.234575 -0.0425537,0.433563 -0.0586817,0.596812 -0.0160523,0.163324 -0.0241541,0.256458 -0.0241541,0.279476l-0.738253 0 0.53124 -4.74716 0.883254 0 0.848651 3.04289c0.0414179,0.151815 0.0724624,0.278265 0.0931335,0.3795 0.0207468,0.10116 0.0310445,0.151815 0.0310445,0.151815l0.0138564 0c0,0 0.00916191,-0.0506555 0.0275615,-0.151815 0.0183995,-0.101235 0.0505798,-0.227685 0.0966166,-0.3795l0.876288 -3.04289 0.883178 0 0.531315 4.74716 -0.82798 0zm4.11923 -2.40118c0,-0.220795 -0.012645,-0.441589 -0.0379349,-0.662384 -0.0252899,-0.220795 -0.0701909,-0.417435 -0.134551,-0.589921 -0.0644363,-0.172486 -0.154087,-0.312792 -0.269103,-0.420918 -0.115016,-0.108126 -0.264484,-0.162113 -0.44848,-0.162113 -0.183995,0 -0.333539,0.0539872 -0.44848,0.162113 -0.115016,0.108126 -0.205878,0.248432 -0.272586,0.420918 -0.0667078,0.172486 -0.112669,0.369127 -0.137959,0.589921 -0.0253656,0.220795 -0.0380106,0.441589 -0.0380106,0.662384 0,0.220795 0.0115092,0.440453 0.0345275,0.658976 0.0230184,0.218447 0.0667078,0.413952 0.131068,0.586438 0.0644363,0.172562 0.155298,0.311657 0.272586,0.417511 0.117288,0.105778 0.270239,0.15863 0.458853,0.15863 0.188614,0 0.340354,-0.0528514 0.45537,-0.15863 0.115016,-0.105854 0.204742,-0.244949 0.269103,-0.417511 0.0644363,-0.172486 0.108126,-0.367991 0.131068,-0.586438 0.0230184,-0.218523 0.0345275,-0.438182 0.0345275,-0.658976zm0.890069 0.0276372c0,0.340354 -0.0333161,0.658901 -0.100024,0.955641 -0.0667078,0.296664 -0.171351,0.555394 -0.313928,0.776188 -0.142653,0.220795 -0.326649,0.394492 -0.551986,0.520942 -0.225413,0.126525 -0.496788,0.18975 -0.814199,0.18975 -0.317411,0 -0.589921,-0.0632248 -0.817682,-0.18975 -0.227685,-0.12645 -0.412816,-0.300147 -0.555394,-0.520942 -0.142653,-0.220795 -0.247296,-0.479524 -0.313928,-0.776188 -0.0667078,-0.29674 -0.1001,-0.615287 -0.1001,-0.955641 0,-0.335811 0.0333918,-0.652086 0.1001,-0.94875 0.0666321,-0.29674 0.171275,-0.555469 0.313928,-0.776264 0.142578,-0.220795 0.327709,-0.395552 0.555394,-0.524349 0.227761,-0.128797 0.500271,-0.193233 0.817682,-0.193233 0.317411,0 0.588786,0.0644363 0.814199,0.193233 0.225338,0.128797 0.409333,0.303555 0.551986,0.524349 0.142578,0.220795 0.24722,0.479524 0.313928,0.776264 0.0667078,0.296664 0.100024,0.61294 0.100024,0.94875zm3.28436 0.993576c0,0.211557 -0.0379349,0.405926 -0.11388,0.583031 -0.0758697,0.177105 -0.180512,0.330056 -0.313928,0.458853 -0.133416,0.128797 -0.293257,0.228821 -0.479524,0.300147 -0.186343,0.0712509 -0.389874,0.106914 -0.610668,0.106914 -0.285155,0 -0.519806,-0.0241541 -0.703802,-0.0724624 -0.183995,-0.0482326 -0.340354,-0.113805 -0.469151,-0.19664l0.213904 -0.614075c0.0827601,0.0551986 0.190886,0.105778 0.324226,0.151815 0.133416,0.045961 0.28985,0.0689794 0.469226,0.0689794 0.234575,0 0.419782,-0.0667078 0.555469,-0.200048 0.135687,-0.133416 0.203531,-0.310521 0.203531,-0.531315 0,-0.179377 -0.0563344,-0.330056 -0.169079,-0.451963 -0.112669,-0.121906 -0.302419,-0.238058 -0.56925,-0.348456 -0.193157,-0.0827601 -0.352999,-0.174758 -0.479524,-0.275993 -0.12645,-0.10116 -0.226549,-0.20815 -0.300147,-0.320818 -0.0735982,-0.112745 -0.125314,-0.228896 -0.155223,-0.348456 -0.0299087,-0.119635 -0.0448252,-0.236923 -0.0448252,-0.351863 0,-0.188614 0.0333161,-0.366855 0.100024,-0.534798 0.0667078,-0.167867 0.160977,-0.3162 0.282884,-0.444996 0.121906,-0.128797 0.270239,-0.230032 0.445072,-0.30363 0.174758,-0.0735982 0.372534,-0.110397 0.593404,-0.110397 0.239194,0 0.446132,0.0252899 0.620966,0.0758697 0.174758,0.0506555 0.315064,0.115016 0.420918,0.193233l-0.193233 0.538206c-0.0828358,-0.0505798 -0.187479,-0.0988881 -0.313928,-0.144925 -0.126525,-0.045961 -0.265696,-0.0689794 -0.417435,-0.0689794 -0.220795,0 -0.389874,0.062089 -0.507161,0.186267 -0.117288,0.124254 -0.175969,0.292121 -0.175969,0.503678 0,0.207014 0.0678436,0.366855 0.203531,0.4796 0.135763,0.112669 0.307038,0.212693 0.514052,0.300147 0.234651,0.0965408 0.422054,0.201259 0.56236,0.313928 0.140306,0.112669 0.248432,0.228821 0.324301,0.348456 0.0758697,0.119559 0.125314,0.239194 0.148332,0.358753 0.0230184,0.119635 0.0345275,0.236923 0.0345275,0.351939zm3.01525 -1.96648c0,-0.32203 -0.0689794,-0.563496 -0.207014,-0.724473 -0.137959,-0.161053 -0.370263,-0.241541 -0.696836,-0.241541 -0.105854,0 -0.195505,0.00810186 -0.269103,0.0241541 -0.0735982,0.016128 -0.131144,0.0333918 -0.172486,0.0517913l0 1.84223 0.179377 0.0138564c0.211557,0.0183995 0.392145,0.00916191 0.541613,-0.0276372 0.149544,-0.0367991 0.270239,-0.0977523 0.362236,-0.18286 0.0919977,-0.0851074 0.158706,-0.190886 0.200123,-0.317411 0.0414179,-0.12645 0.062089,-0.27251 0.062089,-0.438106zm0.841836 0.00689037c0,0.216176 -0.0380106,0.419782 -0.11388,0.610668 -0.0758697,0.190886 -0.194369,0.354135 -0.355346,0.489897 -0.160977,0.135687 -0.367991,0.239194 -0.620966,0.310445 -0.253051,0.0713266 -0.556605,0.0931335 -0.910815,0.0655721l-0.186267 -0.0137807 0 1.87675 -0.855617 0 0 -4.54704c0.151815,-0.078217 0.339218,-0.142578 0.56236,-0.193233 0.223066,-0.0505798 0.472634,-0.0758697 0.748627,-0.0758697 0.303555,0 0.564631,0.0379349 0.783154,0.11388 0.218447,0.0758697 0.3979,0.179377 0.538206,0.310445 0.14023,0.131144 0.243737,0.286367 0.310445,0.465743 0.0667078,0.179452 0.1001,0.374881 0.1001,0.586514zm2.95309 0.00689037c0,-0.331192 -0.0689794,-0.577276 -0.207014,-0.738253 -0.137959,-0.161053 -0.367991,-0.241541 -0.689945,-0.241541 -0.0919977,0 -0.174834,0.00810186 -0.248432,0.0241541 -0.0735982,0.016128 -0.135687,0.0356633 -0.186267,0.0586817l0 1.86297c0.0275615,0.00916191 0.0724624,0.0172638 0.134551,0.0241541 0.062089,0.00689037 0.125314,0.0102977 0.18975,0.0102977 0.340354,0 0.593404,-0.0873789 0.759,-0.262137 0.165596,-0.174834 0.248356,-0.420918 0.248356,-0.738329zm0.0276372 3.33267l-1.34551 -2.15275 -0.0137807 0 0 2.15275 -0.862507 0 0 -4.54704c0.147196,-0.078217 0.331192,-0.142578 0.551986,-0.193233 0.220795,-0.0505798 0.469226,-0.0758697 0.74522,-0.0758697 0.593404,0 1.03386,0.128797 1.32136,0.386391 0.287427,0.257594 0.431216,0.609532 0.431216,1.05566 0,0.179452 -0.0310445,0.343837 -0.0931335,0.49338 -0.062089,0.149468 -0.148408,0.278265 -0.258805,0.386391 -0.110397,0.108126 -0.243737,0.194369 -0.400171,0.258729 -0.156358,0.0644363 -0.32892,0.103507 -0.517459,0.117288l0 0.0138564 1.41449 2.10444 -0.972904 0zm3.38779 -5.10591l-0.46226 0 0.476117 -0.966014c0.0689794,-0.0414179 0.147196,-0.0735982 0.234575,-0.0966166 0.0873789,-0.0229426 0.170215,-0.0344518 0.248356,-0.0344518 0.0828358,0 0.155298,0.0115092 0.217387,0.0344518 0.062089,0.0230184 0.104643,0.0598175 0.127661,0.110397l-0.841836 0.952233zm-0.0413422 1.70427c-0.0506555,-0.174834 -0.0839716,-0.311657 -0.1001,-0.410545 -0.0160523,-0.0988881 -0.0241541,-0.148332 -0.0241541,-0.148332l-0.0137807 0c0,0 -0.00802614,0.0494441 -0.0241541,0.148332 -0.016128,0.0988881 -0.0517156,0.235711 -0.106914,0.410545l-0.510644 1.66974 1.26964 0 -0.489897 -1.66974zm0.979719 3.40164l-0.365644 -1.22126 -1.53178 0 -0.3795 1.22126 -0.786562 0 1.57312 -4.74716 0.82798 0 1.56631 4.74716 -0.903925 0zm3.27747 0l-0.759 0 -1.42827 -4.74716 0.931487 0 0.772781 3.04978c0.0230184,0.0873789 0.0436895,0.179377 0.062089,0.275993 0.0183995,0.0966166 0.0333918,0.172486 0.0448252,0.227685 0.0115092,0.0551986 0.0172638,0.0873789 0.0172638,0.0966166l0.0138564 0c0,-0.00923763 0.00567887,-0.0414179 0.0171881,-0.0966166 0.0115092,-0.0551986 0.0265014,-0.131068 0.044901,-0.227685 0.0183995,-0.0966166 0.0390706,-0.188614 0.062089,-0.275993l0.786562 -3.04978 0.83487 0 -1.40064 4.74716zm4.7885 0l-1.80088 -3.06356c-0.0505798,-0.0873789 -0.0977523,-0.173622 -0.141442,-0.258729 -0.0436895,-0.0851074 -0.0758697,-0.150679 -0.0966166,-0.19664 -0.0206711,-0.0460367 -0.0333161,-0.0713266 -0.0379349,-0.0759455l-0.0137807 0c0,0 0.00461882,0.0564101 0.0137807,0.169079 0.00923763,0.112669 0.0137807,0.24033 0.0137807,0.382907l0 3.04289 -0.738253 0 0 -4.74716 0.82798 0 1.69738 2.88419c0.078217,0.133416 0.140306,0.24722 0.186267,0.341565 0.0460367,0.0942693 0.0690551,0.141442 0.0690551,0.141442l0.0137807 0c0,0 -0.00348304,-0.0494441 -0.0103734,-0.148332 -0.00689037,-0.0989638 -0.0102977,-0.217387 -0.0102977,-0.355346l0 -2.86351 0.731363 0 0 4.74716 -0.703802 0zm3.40854 -2.04924l0 2.04924 -0.876288 0 0 -2.04924 -1.27646 -2.69792 0.931487 0 0.814199 1.96648 0.0137807 0 0.848726 -1.96648 0.83487 0 -1.29032 2.69792zm5.96842 2.04924l-1.35929 -2.40118 -0.0137807 0 0 2.40118 -0.876288 0 0 -4.74716 0.876288 0 0 2.1666 0.0137807 0 1.35929 -2.1666 0.897035 0 -1.48347 2.19416 1.56623 2.55299 -0.979795 0zm3.77425 -3.33267c0,-0.331192 -0.0689794,-0.577276 -0.207014,-0.738253 -0.137959,-0.161053 -0.367991,-0.241541 -0.689945,-0.241541 -0.0919977,0 -0.174834,0.00810186 -0.248432,0.0241541 -0.0735982,0.016128 -0.135687,0.0356633 -0.186267,0.0586817l0 1.86297c0.0275615,0.00916191 0.0724624,0.0172638 0.134551,0.0241541 0.062089,0.00689037 0.125314,0.0102977 0.18975,0.0102977 0.340354,0 0.593404,-0.0873789 0.759,-0.262137 0.165596,-0.174834 0.248356,-0.420918 0.248356,-0.738329zm0.0276372 3.33267l-1.34551 -2.15275 -0.0137807 0 0 2.15275 -0.862507 0 0 -4.54704c0.147196,-0.078217 0.331192,-0.142578 0.551986,-0.193233 0.220795,-0.0505798 0.469226,-0.0758697 0.74522,-0.0758697 0.593404,0 1.03386,0.128797 1.32136,0.386391 0.287427,0.257594 0.431216,0.609532 0.431216,1.05566 0,0.179452 -0.0310445,0.343837 -0.0931335,0.49338 -0.062089,0.149468 -0.148408,0.278265 -0.258805,0.386391 -0.110397,0.108126 -0.243737,0.194369 -0.400171,0.258729 -0.156358,0.0644363 -0.32892,0.103507 -0.517459,0.117288l0 0.0138564 1.41449 2.10444 -0.972904 0zm3.34645 -3.40164c-0.0506555,-0.174834 -0.0839716,-0.313928 -0.1001,-0.417435 -0.0160523,-0.103507 -0.0241541,-0.155298 -0.0241541,-0.155298l-0.0137807 0c0,0 -0.00802614,0.0517913 -0.0241541,0.155298 -0.016128,0.103507 -0.0517156,0.242601 -0.106914,0.417435l-0.510644 1.66974 1.26964 0 -0.489897 -1.66974zm0.979719 3.40164l-0.365644 -1.22126 -1.53178 0 -0.3795 1.22126 -0.786562 0 1.57312 -4.74716 0.82798 0 1.56631 4.74716 -0.903925 0zm2.50461 -0.255322c0,0.275993 -0.0436895,0.519806 -0.131068,0.731439 -0.0873789,0.211557 -0.207014,0.391009 -0.358829,0.538206 -0.151739,0.147196 -0.328845,0.263273 -0.53124,0.34838 -0.202395,0.0851074 -0.418646,0.136899 -0.648603,0.155298l0 -0.614075c0.110397,-0.0230184 0.212768,-0.0633005 0.307038,-0.120771 0.0942693,-0.0575459 0.177105,-0.13228 0.248356,-0.224278 0.0713266,-0.0919977 0.127661,-0.198912 0.169079,-0.320818 0.0414179,-0.121906 0.062089,-0.261077 0.062089,-0.417435l0 -4.56778 0.883178 0 0 4.49184z"/>
  </g>
 </g>
</svg>
